<?xml version="1.0" standalone="no"?>
<!DOCTYPE svg PUBLIC "-//W3C//DTD SVG 20010904//EN"
 "http://www.w3.org/TR/2001/REC-SVG-20010904/DTD/svg10.dtd">
<svg version="1.0" xmlns="http://www.w3.org/2000/svg"
 width="3001.000000pt" height="2000.000000pt" viewBox="0 0 3001.000000 2000.000000"
 preserveAspectRatio="xMidYMid meet">

<g transform="translate(0.000000,2000.000000) scale(0.100000,-0.100000)"
fill="#000000" stroke="none">
<path d="M19355 17819 c-280 -30 -541 -157 -762 -372 -325 -316 -517 -743
-583 -1302 -31 -255 -27 -707 9 -1215 43 -597 50 -825 31 -1125 -32 -528 -119
-999 -276 -1492 l-45 -143 -48 0 c-41 0 -76 -14 -220 -85 -95 -47 -180 -85
-190 -85 -9 0 -42 12 -72 26 -166 81 -314 145 -347 150 -49 8 -117 -11 -160
-44 -35 -27 -72 -97 -257 -492 -134 -287 -195 -413 -239 -499 l-44 -85 -83
-22 c-217 -58 -458 -180 -620 -315 l-47 -39 -151 0 c-168 0 -193 -7 -231 -60
-12 -17 -19 -38 -16 -46 3 -8 2 -12 -4 -9 -6 4 -10 -30 -10 -91 0 -78 4 -106
20 -140 39 -80 -15 -74 773 -76 386 -1 677 -3 647 -5 -30 -2 -398 -4 -818 -6
l-764 -2 -33 -36 c-38 -42 -50 -103 -42 -205 7 -92 18 -122 55 -149 27 -20 47
-20 1947 -25 1056 -3 2405 -3 2998 -1 l1079 3 -32 33 c-18 19 -58 47 -89 63
-113 61 -237 76 -386 47 -243 -46 -333 -30 -537 93 -159 96 -189 107 -303 106
-91 0 -108 -3 -195 -38 -52 -20 -123 -53 -157 -72 l-63 -35 0 63 c0 45 -6 72
-20 95 -33 55 -62 67 -174 71 l-100 4 33 17 c60 28 75 60 79 164 7 150 -12
189 -106 223 -32 11 0 13 258 14 l295 0 -55 36 c-153 101 -334 164 -530 184
-76 8 -118 7 -213 -6 -64 -9 -119 -15 -121 -13 -13 13 -144 301 -142 311 2 15
41 119 60 163 7 17 18 44 24 60 6 17 31 82 56 145 24 63 68 176 97 250 28 74
76 195 105 269 30 74 53 136 51 137 -1 1 -46 -70 -100 -159 -54 -89 -129 -213
-167 -274 -182 -293 -206 -332 -222 -354 -16 -24 -16 -23 -68 86 -29 61 -90
188 -136 284 -46 95 -84 177 -84 180 0 11 130 332 152 376 54 107 183 258 291
342 71 55 210 127 297 154 142 44 223 49 813 49 l557 0 0 183 0 182 -113 2
c-251 4 -463 106 -710 343 -254 242 -399 492 -491 840 -72 274 -238 897 -242
911 -4 13 5 18 43 24 118 17 339 107 502 204 235 140 503 408 641 644 19 33
39 61 43 61 5 1 23 -35 41 -79 168 -413 474 -714 886 -871 l85 -32 17 -139 c9
-76 24 -165 33 -198 24 -88 82 -192 145 -259 l55 -58 -3 110 c-7 199 40 349
145 462 92 100 218 147 340 128 71 -11 111 -30 166 -79 96 -83 120 -230 73
-437 -33 -149 -82 -250 -157 -325 -117 -117 -270 -147 -402 -80 -16 8 -31 13
-33 11 -2 -2 -6 -29 -9 -59 -4 -29 -15 -85 -27 -124 -21 -73 -21 -143 -3 -555
7 -169 15 -353 20 -525 3 -88 8 -188 11 -222 l6 -63 569 0 c318 0 569 4 569 9
0 5 9 62 20 127 82 495 123 1211 101 1763 -31 769 -137 1467 -286 1876 -259
715 -767 1125 -1395 1125 -197 0 -368 -43 -501 -125 l-59 -36 -67 41 c-125 75
-273 123 -433 140 -107 11 -132 11 -245 -1z"/>
<path d="M9375 17734 c-143 -20 -192 -30 -275 -56 -346 -110 -606 -370 -690
-687 l-17 -65 -89 -22 c-110 -27 -169 -53 -259 -114 -406 -275 -542 -886 -339
-1519 35 -108 162 -378 202 -429 l18 -23 58 35 c58 35 129 56 189 56 45 0 139
-26 190 -51 64 -33 167 -144 209 -225 37 -71 88 -242 88 -295 0 -16 4 -29 9
-29 17 0 97 98 130 160 45 85 61 146 68 273 l6 108 66 67 c146 147 280 364
341 551 52 159 70 270 77 464 l6 177 847 0 848 0 26 -82 c57 -178 59 -195 65
-628 l6 -405 52 161 c80 245 88 289 88 504 0 209 -13 291 -71 447 l-34 91 61
59 c137 129 221 285 247 458 11 69 26 315 20 315 -2 0 -28 -9 -58 -21 -71 -27
-173 -35 -252 -20 -96 18 -227 89 -393 212 -412 307 -703 450 -1045 514 -83
15 -335 28 -395 19z"/>
<path d="M9747 15506 c-81 -30 -152 -91 -217 -186 -55 -81 -123 -210 -111
-210 5 0 63 30 128 66 65 37 203 114 307 172 l189 106 -62 30 c-76 35 -175 44
-234 22z"/>
<path d="M10883 15498 c-42 -30 -48 -46 -25 -72 10 -12 74 -87 141 -168 67
-82 124 -148 127 -148 11 0 -52 228 -81 295 -28 63 -76 115 -107 115 -13 0
-38 -10 -55 -22z"/>
<path d="M19850 15484 c-58 -16 -171 -73 -177 -90 -3 -10 656 -99 664 -90 8 8
-152 117 -211 145 -63 30 -147 51 -194 50 -15 0 -52 -7 -82 -15z"/>
<path d="M18796 15449 c-40 -22 -181 -157 -172 -166 5 -5 447 76 455 83 9 8
-36 47 -84 75 -62 36 -140 39 -199 8z"/>
<path d="M19883 15143 c-24 -31 -28 -45 -28 -102 0 -72 17 -108 60 -131 35
-19 73 -4 103 40 20 30 23 44 20 102 -3 58 -8 72 -33 98 -42 44 -85 42 -122
-7z"/>
<path d="M18850 15128 c-21 -34 -23 -51 -22 -130 1 -74 46 -136 82 -113 36 22
58 130 40 196 -22 83 -66 103 -100 47z"/>
<path d="M9931 15097 c-42 -21 -64 -62 -69 -126 -5 -73 10 -123 49 -156 77
-64 169 6 169 130 0 72 -20 119 -62 145 -38 23 -54 24 -87 7z"/>
<path d="M10844 15084 c-13 -18 -19 -53 -22 -114 -6 -120 19 -190 62 -174 40
15 53 202 20 270 -24 48 -38 52 -60 18z"/>
<path d="M8100 12620 c-124 -20 -259 -57 -350 -95 -76 -31 -263 -125 -270
-134 -3 -4 -30 -22 -60 -40 -30 -19 -57 -37 -60 -40 -3 -4 -21 -18 -40 -31
-79 -55 -330 -320 -330 -349 0 -5 -14 -26 -31 -47 -17 -22 -37 -52 -45 -69 -8
-16 -27 -52 -44 -80 -29 -50 -224 -438 -253 -505 -8 -19 -29 -65 -46 -103 -17
-37 -31 -70 -31 -73 0 -3 -12 -31 -26 -62 -15 -31 -42 -97 -61 -147 -34 -91
-39 -102 -67 -167 -9 -20 -16 -41 -16 -47 0 -6 -4 -19 -10 -29 -5 -9 -16 -35
-24 -57 -7 -22 -26 -73 -40 -113 -15 -40 -23 -78 -20 -84 4 -6 3 -8 -2 -5 -6
3 -16 -15 -23 -41 -8 -26 -18 -52 -23 -59 -5 -7 -7 -22 -3 -34 5 -13 3 -19 -3
-15 -12 7 -24 -36 -16 -61 4 -13 3 -14 -4 -5 -7 10 -12 4 -20 -25 -10 -37 -22
-78 -77 -253 -29 -95 -43 -144 -51 -179 -3 -13 -14 -49 -24 -80 -24 -68 -67
-229 -85 -311 -2 -8 -12 -49 -24 -90 -18 -68 -81 -327 -111 -457 -6 -28 -9
-62 -5 -75 4 -16 3 -19 -3 -9 -7 9 -12 -1 -17 -35 -10 -62 -11 -67 -19 -92 -4
-12 -16 -67 -26 -124 -17 -91 -42 -220 -48 -240 -1 -5 -2 -15 -2 -23 0 -23
-11 -18 -55 23 -38 35 -243 216 -332 292 -22 19 -55 46 -74 60 -18 14 -47 37
-63 51 -35 29 -173 135 -250 192 -84 62 -109 76 -119 70 -6 -3 -7 -1 -3 5 8
13 -122 105 -136 96 -6 -4 -8 -2 -5 3 4 6 -33 36 -85 69 -51 33 -93 57 -95 54
-1 -3 -8 3 -15 12 -7 9 -27 25 -45 35 -18 10 -70 41 -115 69 -46 29 -105 64
-133 79 -27 15 -54 31 -60 35 -37 29 -218 119 -227 114 -6 -4 -8 -2 -4 4 3 6
-4 14 -16 18 -13 3 -34 14 -48 24 -53 37 -57 30 -64 -134 -38 -890 -50 -1510
-36 -1941 6 -187 11 -347 11 -355 0 -188 71 -908 114 -1150 35 -197 45 -263
41 -267 -2 -2 -75 9 -162 26 -280 53 -516 84 -869 113 -225 18 -848 16 -1074
-5 -101 -9 -186 -19 -188 -21 -6 -6 441 -763 585 -991 28 -44 68 -107 88 -140
286 -457 620 -927 894 -1260 143 -174 150 -182 295 -338 61 -66 120 -132 133
-148 32 -39 316 -306 437 -410 484 -415 995 -732 1502 -930 l113 -44 1 -40 c1
-22 2 -47 3 -55 2 -8 3 -72 4 -142 l2 -128 1325 0 c729 0 1325 2 1325 5 0 3
11 127 25 276 16 169 37 321 55 407 42 201 51 293 51 527 -1 163 7 294 34 590
19 209 36 389 38 400 4 27 10 -27 145 -1190 l117 -1010 1143 -3 1144 -2 -6 27
c-3 16 -19 150 -36 298 -17 149 -48 421 -70 605 -68 578 -124 1068 -260 2255
-28 248 -53 460 -55 472 -3 12 -56 77 -117 145 -62 68 -147 162 -188 208 -41
47 -93 105 -116 130 -22 25 -58 65 -80 90 -21 24 -66 74 -99 110 -33 36 -134
148 -225 250 -155 174 -221 248 -245 274 -18 19 -336 376 -429 480 -107 122
-220 247 -301 336 -372 406 -498 565 -587 735 -68 133 -94 202 -204 545 -47
146 -89 278 -94 293 -11 32 -45 7 405 292 138 87 329 209 425 270 333 213 452
287 455 283 3 -2 51 -229 109 -503 58 -275 116 -550 129 -611 l24 -110 252
-375 c346 -513 671 -997 696 -1036 38 -60 37 -104 16 482 -21 634 -7 1633 30
2024 l12 124 31 -35 c31 -34 95 -113 236 -289 41 -52 92 -111 113 -133 21 -22
52 -58 70 -80 18 -22 40 -48 49 -58 9 -9 24 -28 33 -42 20 -31 25 -29 74 34
21 26 42 45 47 42 10 -8 67 -72 139 -157 46 -54 127 -148 145 -168 4 -5 76
126 160 290 85 164 196 379 247 478 51 99 137 266 190 371 l97 192 -27 39
c-27 39 -34 68 -19 75 4 2 24 25 44 51 l37 48 -35 57 c-19 31 -40 66 -47 77
-7 11 -30 49 -53 85 -22 36 -50 81 -61 100 -11 19 -113 187 -227 372 -113 186
-206 340 -206 343 0 3 -5 11 -10 18 -17 19 -54 78 -101 158 -24 41 -53 88 -66
105 -13 17 -23 34 -23 38 0 4 -13 27 -30 51 -16 24 -30 46 -30 50 0 4 -13 25
-28 48 -42 61 -204 333 -234 392 -44 88 -119 219 -134 236 -8 8 -14 20 -14 25
0 8 -46 81 -111 175 -78 112 -217 256 -307 315 -129 86 -285 126 -474 122 -65
-1 -118 -3 -118 -4 0 -2 21 -31 48 -66 91 -121 124 -255 87 -352 -21 -55 -86
-116 -142 -135 -119 -38 -256 -20 -403 53 -79 39 -251 157 -298 204 -63 63
-295 232 -318 232 -6 0 -17 7 -24 15 -6 8 -58 32 -115 55 l-103 40 -184 -1
c-119 -1 -219 -8 -288 -19z m3860 -3013 c0 -2 -10 -12 -22 -23 l-23 -19 19 23
c18 21 26 27 26 19z m-7930 -302 c0 -2 -6 -5 -13 -8 -8 -3 -14 1 -14 8 0 7 6
11 14 8 7 -3 13 -6 13 -8z m5397 -127 c-3 -8 -6 -5 -6 6 -1 11 2 17 5 13 3 -3
4 -12 1 -19z m2106 -73 c-3 -9 -8 -14 -10 -11 -3 3 -2 9 2 15 9 16 15 13 8 -4z
m-7028 -133 c-3 -3 -11 0 -18 7 -9 10 -8 11 6 5 10 -3 15 -9 12 -12z m1382 -4
c-3 -8 -6 -5 -6 6 -1 11 2 17 5 13 3 -3 4 -12 1 -19z m5513 -22 c0 -2 -8 -10
-17 -17 -16 -13 -17 -12 -4 4 13 16 21 21 21 13z m-3340 -30 c0 -3 -4 -8 -10
-11 -5 -3 -10 -1 -10 4 0 6 5 11 10 11 6 0 10 -2 10 -4z m-2233 -338 c-3 -7
-5 -2 -5 12 0 14 2 19 5 13 2 -7 2 -19 0 -25z"/>
<path d="M21556 11850 c-33 -90 -55 -164 -51 -171 5 -7 4 -10 -2 -6 -12 7 -35
-44 -93 -208 -23 -66 -67 -185 -97 -265 -30 -80 -64 -170 -75 -200 -12 -30
-27 -68 -33 -85 -7 -16 -20 -50 -28 -75 -9 -25 -43 -117 -77 -205 -34 -88 -86
-227 -116 -310 -31 -82 -65 -172 -76 -200 -11 -27 -26 -66 -34 -86 -14 -41
-15 -37 74 -172 l25 -38 -32 -112 c-19 -62 -42 -139 -53 -171 -10 -33 -25 -82
-33 -110 -7 -28 -27 -98 -44 -156 -18 -58 -56 -190 -87 -295 -30 -104 -63
-217 -73 -250 -10 -33 -31 -103 -46 -155 -42 -150 -33 -138 -163 -205 -64 -33
-146 -76 -182 -96 -36 -20 -114 -62 -175 -94 -60 -32 -113 -63 -116 -68 -4 -5
-10 -4 -14 3 -4 6 -2 17 4 23 8 8 10 129 9 417 l-3 405 -5 -405 -5 -405 -3
403 c-1 266 -5 401 -12 397 -5 -3 -10 -3 -10 2 0 4 -117 8 -260 7 -142 0 -265
3 -272 7 -10 7 -9 9 3 9 20 0 65 47 78 83 19 49 13 216 -8 264 -37 80 198 73
-2418 70 -1286 -2 -2351 -6 -2368 -11 -16 -4 -25 -4 -18 1 6 4 -34 9 -90 10
-125 2 -164 -14 -196 -80 -16 -34 -21 -62 -21 -130 0 -92 17 -155 32 -120 6
14 7 12 5 -8 -5 -35 22 -53 59 -39 24 9 25 9 14 -5 -7 -8 -20 -16 -29 -17 -87
-9 383 -14 1114 -11 490 2 1175 0 1523 -4 l632 -8 0 -1257 0 -1258 35 0 c43 0
327 -93 478 -156 127 -54 413 -198 440 -222 17 -15 21 -13 66 33 176 186 371
409 369 422 -2 9 3 18 11 21 9 3 11 0 7 -9 -4 -8 4 0 18 16 14 17 21 32 16 33
-6 2 -7 8 -4 14 4 6 10 5 15 -3 7 -11 12 -8 26 11 10 14 16 29 15 35 -2 5 0 7
4 3 8 -9 34 10 34 24 0 6 -6 6 -14 -1 -11 -9 -15 -8 -20 5 -4 9 -4 19 -1 22 3
3 5 0 5 -6 0 -7 5 -12 11 -12 6 0 8 8 5 18 -6 16 -5 16 8 0 16 -22 30 -23 22
-3 -3 10 -1 15 7 13 7 -2 32 20 57 47 25 28 48 51 52 53 4 2 5 9 3 15 -7 18 9
37 33 42 20 3 67 49 71 67 1 4 27 34 59 65 31 32 87 90 122 128 36 39 93 101
128 138 35 37 60 72 57 77 -3 5 0 8 7 5 7 -3 24 11 37 30 13 19 27 35 32 35 5
0 7 18 5 40 -2 22 0 42 5 46 5 3 6 -3 2 -12 -4 -12 -2 -15 8 -12 12 4 14 57
17 301 1 198 6 297 13 297 7 0 9 -96 7 -300 -2 -165 0 -299 3 -298 18 8 167
184 162 192 -3 5 -2 6 4 3 5 -4 23 7 38 23 25 26 26 31 14 47 -13 16 -12 17 2
5 15 -11 24 -5 67 40 27 29 65 71 83 92 19 22 45 52 59 66 83 89 157 168 249
268 l104 113 54 222 c29 122 51 228 48 236 -3 9 -3 12 1 8 8 -8 49 149 119
453 96 419 142 585 159 584 9 -1 47 -20 84 -42 147 -87 1144 -644 1147 -640 1
1 25 82 53 178 l50 175 -156 51 c-87 29 -292 95 -457 149 -165 53 -381 123
-480 155 -99 33 -202 65 -229 71 -79 20 -141 46 -140 61 2 13 68 236 180 601
35 115 64 216 64 226 0 9 4 21 9 26 4 6 25 69 46 140 55 189 71 242 95 320 12
39 28 90 35 115 7 25 45 151 85 280 90 294 92 301 88 305 -2 2 -29 -68 -62
-155z m-4150 -2475 c24 -18 7 -19 -26 0 -16 9 -19 14 -9 15 8 0 24 -7 35 -15z
m-2936 -5 c-8 -5 -19 -10 -25 -10 -5 0 -3 5 5 10 8 5 20 10 25 10 6 0 3 -5 -5
-10z m167 4 c-3 -3 -12 -4 -19 -1 -8 3 -5 6 6 6 11 1 17 -2 13 -5z m2610 0
c-3 -3 -12 -4 -19 -1 -8 3 -5 6 6 6 11 1 17 -2 13 -5z m-2857 -85 c-6 -11 -10
-56 -9 -100 1 -44 -1 -82 -5 -86 -10 -11 -7 167 4 188 6 10 13 19 16 19 2 0 0
-9 -6 -21z m3070 1 c0 -5 -5 -10 -11 -10 -5 0 -7 5 -4 10 3 6 8 10 11 10 2 0
4 -4 4 -10z m0 -198 c0 -16 -6 -37 -14 -47 -11 -16 -12 -12 -2 28 12 54 16 58
16 19z m-3013 -58 c-3 -3 -12 -4 -19 -1 -8 3 -5 6 6 6 11 1 17 -2 13 -5z m233
-14 c-25 -4 568 -8 1318 -8 902 -1 1362 1 1362 8 0 6 5 10 11 10 5 0 7 -5 3
-11 -5 -9 1 -10 20 -5 14 3 26 2 26 -3 0 -5 -8 -10 -17 -12 -41 -9 -2893 2
-2893 10 0 5 28 10 61 10 34 0 64 2 67 5 3 4 24 5 46 4 l41 -1 -45 -7z m1703
3 c-233 -2 -613 -2 -845 0 -233 1 -43 2 422 2 465 0 655 -1 423 -2z m1360 -68
c-3 -9 -8 -14 -10 -11 -3 3 -2 9 2 15 9 16 15 13 8 -4z m870 8 c-7 -2 -19 -2
-25 0 -7 3 -2 5 12 5 14 0 19 -2 13 -5z m-856 -95 c-2 -13 -4 -5 -4 17 -1 22
1 32 4 23 2 -10 2 -28 0 -40z m33 -84 c0 -8 -4 -12 -10 -9 -5 3 -10 10 -10 16
0 5 5 9 10 9 6 0 10 -7 10 -16z m40 -10 c0 -14 -4 -23 -10 -19 -5 3 -10 15
-10 26 0 10 5 19 10 19 6 0 10 -12 10 -26z m-20 -70 c0 -8 -4 -12 -10 -9 -5 3
-10 10 -10 16 0 5 5 9 10 9 6 0 10 -7 10 -16z m20 -85 c0 -11 -4 -17 -10 -14
-5 3 -10 13 -10 21 0 8 5 14 10 14 6 0 10 -9 10 -21z m80 -148 c0 -6 -4 -13
-10 -16 -5 -3 -10 1 -10 9 0 9 5 16 10 16 6 0 10 -4 10 -9z m-20 -87 c0 -8 -4
-12 -10 -9 -5 3 -10 10 -10 16 0 5 5 9 10 9 6 0 10 -7 10 -16z m20 -80 c0 -8
-4 -12 -10 -9 -5 3 -10 10 -10 16 0 5 5 9 10 9 6 0 10 -7 10 -16z m50 -158 c0
-8 -4 -18 -10 -21 -5 -3 -10 -4 -10 -1 0 2 -3 11 -6 20 -4 11 -1 16 10 16 9 0
16 -6 16 -14z m7 -88 c-3 -8 -6 -5 -6 6 -1 11 2 17 5 13 3 -3 4 -12 1 -19z
m1980 -400 c-1 -79 -3 -15 -3 142 0 157 2 221 3 143 2 -79 2 -207 0 -285z
m-1957 327 c0 -8 -2 -15 -4 -15 -2 0 -6 7 -10 15 -3 8 -1 15 4 15 6 0 10 -7
10 -15z m43 -165 c-3 -11 -7 -20 -9 -20 -2 0 -4 9 -4 20 0 11 4 20 9 20 5 0 7
-9 4 -20z m14 -82 c-3 -8 -6 -5 -6 6 -1 11 2 17 5 13 3 -3 4 -12 1 -19z m30 0
c-3 -8 -6 -5 -6 6 -1 11 2 17 5 13 3 -3 4 -12 1 -19z m-10 -80 c-3 -8 -6 -5
-6 6 -1 11 2 17 5 13 3 -3 4 -12 1 -19z m53 -152 c0 -8 -4 -18 -10 -21 -5 -3
-10 3 -10 14 0 12 5 21 10 21 6 0 10 -6 10 -14z m7 -88 c-3 -8 -6 -5 -6 6 -1
11 2 17 5 13 3 -3 4 -12 1 -19z m1763 -3 c0 -7 -39 -45 -45 -45 -9 0 29 49 38
50 4 0 7 -2 7 -5z m-100 -76 c0 -14 -17 -10 -23 5 -4 10 -1 13 9 9 7 -3 14 -9
14 -14z m26 -15 c-11 -7 -27 -25 -37 -40 -10 -16 -19 -22 -23 -15 -4 6 -2 11
4 11 7 0 9 9 5 23 -4 14 -3 17 3 9 6 -9 14 -6 32 13 13 14 26 22 29 19 3 -3
-3 -12 -13 -20z m-107 -55 c8 12 12 11 27 -4 17 -17 17 -17 -5 -10 -21 6 -22
5 -16 -16 7 -21 6 -22 -8 -11 -12 10 -16 10 -19 0 -3 -7 -5 2 -5 20 0 21 3 28
9 20 6 -10 10 -10 17 1z m-1509 -41 c0 -19 -2 -20 -10 -8 -13 19 -13 30 0 30
6 0 10 -10 10 -22z m37 -20 c-3 -8 -6 -5 -6 6 -1 11 2 17 5 13 3 -3 4 -12 1
-19z m1454 -21 c-10 -9 -11 -8 -5 6 3 10 9 15 12 12 3 -3 0 -11 -7 -18z m-31
-13 c0 -3 -7 -12 -15 -20 -12 -13 -15 -13 -15 -1 0 7 3 17 7 20 8 8 23 9 23 1z
m-61 -87 c-24 -23 -46 -38 -48 -33 -2 5 3 12 10 17 8 4 27 19 42 33 47 44 44
29 -4 -17z m-1299 23 c0 -5 -4 -10 -10 -10 -5 0 -10 5 -10 10 0 6 5 10 10 10
6 0 10 -4 10 -10z m1252 -20 c-12 -11 -24 -20 -27 -20 -3 0 0 9 7 20 7 11 19
20 27 20 11 0 9 -6 -7 -20z m-1235 -22 c-3 -8 -6 -5 -6 6 -1 11 2 17 5 13 3
-3 4 -12 1 -19z m1150 -45 c-9 -9 -20 -13 -24 -9 -4 4 -1 11 7 16 25 16 35 11
17 -7z m29 -28 c-30 -28 -39 -31 -44 -16 -2 6 2 11 8 11 6 0 18 7 26 15 9 8
20 15 26 15 6 0 -1 -11 -16 -25z m-30 -48 c19 7 18 -1 -3 -20 -17 -14 -18 -14
-19 11 -1 15 1 22 3 15 2 -7 11 -9 19 -6z m-1081 -27 c10 -11 16 -20 13 -20
-3 0 -13 9 -23 20 -10 11 -16 20 -13 20 3 0 13 -9 23 -20z m80 -80 c3 -5 1
-10 -4 -10 -6 0 -11 5 -11 10 0 6 2 10 4 10 3 0 8 -4 11 -10z m142 -46 c-3 -3
-12 -4 -19 -1 -8 3 -5 6 6 6 11 1 17 -2 13 -5z m723 3 c0 -2 -12 -14 -27 -28
l-26 -24 19 27 c16 23 34 36 34 25z m-770 -26 c0 -5 11 -12 24 -15 23 -6 45
-36 26 -36 -6 0 -10 4 -10 9 0 5 -14 14 -30 21 -35 15 -48 30 -26 30 9 0 16
-4 16 -9z m80 -1 c0 -5 -2 -10 -4 -10 -3 0 -8 5 -11 10 -3 6 -1 10 4 10 6 0
11 -4 11 -10z m80 -100 c0 -5 -2 -10 -4 -10 -3 0 -8 5 -11 10 -3 6 -1 10 4 10
6 0 11 -4 11 -10z"/>
<path d="M26181 9431 c-34 -18 -48 -31 -40 -35 8 -3 4 -3 -8 -1 -12 3 -24 1
-28 -4 -3 -6 -41 -27 -85 -48 -43 -20 -76 -41 -74 -45 3 -4 -2 -8 -11 -8 -8 0
-40 -15 -71 -32 -30 -18 -70 -42 -89 -53 -148 -86 -194 -118 -189 -127 4 -7 2
-8 -4 -4 -13 8 -94 -43 -87 -55 3 -4 0 -11 -6 -15 -8 -4 -9 -3 -5 4 12 21 -2
13 -90 -44 -66 -43 -83 -59 -73 -66 11 -7 9 -8 -5 -4 -12 4 -38 -8 -77 -36
-96 -69 -194 -141 -199 -147 -3 -3 -12 -10 -22 -16 -57 -35 -136 -102 -133
-113 3 -7 0 -10 -5 -7 -12 7 -86 -54 -82 -68 1 -5 -2 -5 -9 -2 -13 9 -71 -44
-62 -58 3 -6 1 -7 -5 -3 -15 9 -176 -126 -367 -305 -33 -31 -75 -71 -93 -88
-20 -18 -31 -35 -26 -42 4 -8 3 -9 -4 -5 -15 9 -85 -61 -76 -76 4 -7 3 -8 -5
-4 -15 10 -85 -60 -75 -75 4 -8 3 -9 -4 -5 -11 6 -90 -72 -228 -224 -27 -30
-60 -66 -74 -80 -57 -59 -95 -105 -92 -112 1 -5 -3 -8 -9 -8 -5 0 -7 -5 -3
-12 4 -6 3 -8 -4 -4 -6 3 -20 -6 -31 -21 -49 -64 -67 -87 -77 -97 -9 -9 -210
-264 -274 -348 -18 -24 -19 -32 -9 -75 6 -26 14 -57 19 -68 5 -11 11 -33 13
-50 3 -16 12 -70 21 -120 9 -49 16 -98 16 -107 0 -17 -64 -18 -1212 -17 -667
1 -1204 4 -1194 6 18 5 95 50 106 63 3 4 106 75 230 160 124 85 227 156 230
159 3 3 66 47 140 96 170 114 303 243 381 370 55 89 119 229 119 259 0 9 4 24
9 34 12 22 36 156 62 357 23 172 27 201 58 430 12 83 28 202 37 265 52 390 62
409 -127 -245 -144 -501 -160 -549 -211 -655 -27 -58 -51 -110 -52 -117 -1 -7
-6 -16 -11 -20 -4 -4 -5 -2 0 6 5 8 4 12 -1 8 -5 -3 -19 -25 -31 -49 -12 -24
-30 -52 -40 -63 -10 -11 -31 -38 -48 -60 -54 -73 -189 -200 -320 -300 -71 -55
-166 -127 -210 -160 -176 -135 -266 -203 -385 -294 -69 -52 -127 -98 -130
-101 -3 -4 -15 -12 -28 -19 -20 -11 -21 -15 -10 -29 11 -15 11 -15 -3 -5 -13
11 -26 5 -80 -37 -35 -27 -127 -97 -204 -155 -314 -237 -363 -274 -426 -326
-37 -30 -108 -85 -159 -124 -51 -38 -127 -97 -170 -130 -43 -33 -149 -114
-237 -180 -87 -66 -176 -138 -198 -160 -40 -41 -226 -249 -340 -380 -184 -212
-311 -337 -373 -369 -64 -33 -160 -56 -232 -56 l-55 0 -42 -252 c-23 -139
-157 -942 -298 -1785 -140 -843 -255 -1539 -255 -1547 0 -14 107 -16 1045 -16
l1044 0 31 103 c17 56 49 158 70 227 21 69 56 188 79 265 22 77 166 568 320
1090 153 523 332 1131 397 1353 65 221 120 402 124 402 3 0 54 -456 113 -1012
60 -557 135 -1260 168 -1563 32 -302 66 -621 75 -708 l17 -157 1002 0 1003 0
6 31 c3 17 6 46 6 64 l0 33 88 6 c394 28 629 69 937 161 633 190 1257 544
1825 1034 14 12 52 45 85 74 33 28 143 133 244 232 560 549 1064 1224 1689
2260 122 202 322 540 364 615 14 25 35 61 47 81 l21 36 -57 7 c-631 67 -1393
33 -2077 -95 -87 -16 -161 -28 -163 -25 -2 2 5 60 18 128 12 67 23 140 24 161
1 21 5 40 8 43 3 3 3 21 0 40 -3 20 -1 34 5 34 5 0 13 33 17 73 10 96 11 105
19 152 12 75 46 478 51 603 3 68 7 127 8 131 14 27 17 1317 4 1661 -4 118 -10
296 -13 395 -2 99 -7 191 -10 205 -3 14 -5 66 -5 115 2 87 -4 126 -18 124 -3
0 -30 -13 -60 -28z m-471 -285 c0 -2 -7 -7 -16 -10 -8 -3 -12 -2 -9 4 6 10 25
14 25 6z m45 -16 c-3 -5 -12 -10 -18 -10 -7 0 -6 4 3 10 19 12 23 12 15 0z
m-729 -466 c1 -9 0 -13 -4 -10 -3 4 -7 14 -8 22 -1 9 0 13 4 10 3 -4 7 -14 8
-22z m-631 -514 c-3 -5 -12 -10 -18 -10 -7 0 -6 4 3 10 19 12 23 12 15 0z
m-1054 -1177 c13 -16 12 -17 -3 -4 -17 13 -22 21 -14 21 2 0 10 -8 17 -17z"/>
<path d="M19936 7454 c-4 -10 -1 -14 6 -12 15 5 23 28 10 28 -5 0 -13 -7 -16
-16z"/>
<path d="M19390 6855 c-8 -9 -8 -15 -2 -15 12 0 26 19 19 26 -2 2 -10 -2 -17
-11z"/>
<path d="M17710 5765 l0 -356 23 18 c12 10 109 108 215 220 l193 202 -61 50
c-72 60 -135 101 -245 161 -44 23 -84 47 -89 51 -34 31 -36 15 -36 -346z"/>
</g>
</svg>
